<?xml version="1.0" encoding="utf-8"?>
<!-- Generator: Circuit Diagram, cdlibrary.dll 1.0.0.0 -->
<!DOCTYPE svg PUBLIC "-//W3C//DTD SVG 1.1//EN" "http://www.w3.org/Graphics/SVG/1.1/DTD/svg11.dtd">
<svg version="1.1" width="400" height="260" xmlns="http://www.w3.org/2000/svg">
	<text x="150" y="230" style="font-family:Arial;font-size:11px;text-anchor:start" dy=".3em" transform="rotate(0, 150, 230)">#0</text>
	<text x="80" y="140" style="font-family:Arial;font-size:11px;text-anchor:start" dy=".3em" transform="rotate(0, 80, 140)">VDD</text>
	<line x1="350" y1="70" x2="350" y2="80" style="stroke:rgb(0, 0, 0);stroke-linecap:square;stroke-width:2" />
	<line x1="350" y1="120" x2="350" y2="130" style="stroke:rgb(0, 0, 0);stroke-linecap:square;stroke-width:2" />
	<path d="M 350,80 L 350,82 L 343,85 L 357,91 L 343,97 L 357,103 L 343,109 L 357,115 L 350,118 L 350,120" style="fill-opacity:0;fill:rgb(0, 0, 0);stroke:rgb(0, 0, 0);stroke-linecap:square;stroke-width:2" />
	<text x="336" y="100" style="font-family:Arial;font-size:11px;text-anchor:end" dy=".3em" transform="rotate(0, 336, 100)">220 Ω</text>
	<text x="220" y="140" style="font-family:Arial;font-size:11px;text-anchor:start" dy=".3em" transform="rotate(0, 220, 140)">#5</text>
	<text x="360" y="60" style="font-family:Arial;font-size:11px;text-anchor:start" dy=".3em" transform="rotate(0, 360, 60)">#3</text>
	<text x="220" y="50" style="font-family:Arial;font-size:11px;text-anchor:start" dy=".3em" transform="rotate(0, 220, 50)">#2</text>
	<text x="360" y="140" style="font-family:Arial;font-size:11px;text-anchor:start" dy=".3em" transform="rotate(0, 360, 140)">#4</text>
	<text x="40" y="60" style="font-family:Arial;font-size:11px;text-anchor:start" dy=".3em" transform="rotate(0, 40, 60)">#1</text>
	<text x="80" y="30" style="font-family:Arial;font-size:11px;text-anchor:start" dy=".3em" transform="rotate(0, 80, 30)">CIRCUITO 1</text>
	<text x="270" y="30" style="font-family:Arial;font-size:11px;text-anchor:start" dy=".3em" transform="rotate(0, 270, 30)">VDummy1</text>
	<text x="190" y="110" style="font-family:Arial;font-size:11px;text-anchor:start" dy=".3em" transform="rotate(0, 190, 110)">VDummy2</text>
	<line x1="350" y1="60" x2="350" y2="60" style="stroke:rgb(0, 0, 0);stroke-linecap:square;stroke-width:2" />
	<line x1="350" y1="60" x2="350" y2="70" style="stroke:rgb(0, 0, 0);stroke-linecap:square;stroke-width:2" />
	<line x1="250" y1="60" x2="270" y2="60" style="stroke:rgb(0, 0, 0);stroke-linecap:square;stroke-width:2" />
	<line x1="70" y1="220" x2="350" y2="220" style="stroke:rgb(0, 0, 0);stroke-linecap:square;stroke-width:2" />
	<line x1="250" y1="60" x2="250" y2="86" style="stroke:rgb(0, 0, 0);stroke-linecap:square;stroke-width:2" />
	<line x1="240" y1="86" x2="260" y2="86" style="stroke:rgb(0, 0, 0);stroke-linecap:square;stroke-width:2" />
	<line x1="245" y1="92" x2="255" y2="92" style="stroke:rgb(0, 0, 0);stroke-linecap:square;stroke-width:2" />
	<line x1="240" y1="98" x2="260" y2="98" style="stroke:rgb(0, 0, 0);stroke-linecap:square;stroke-width:2" />
	<line x1="245" y1="104" x2="255" y2="104" style="stroke:rgb(0, 0, 0);stroke-linecap:square;stroke-width:2" />
	<line x1="250" y1="104" x2="250" y2="130" style="stroke:rgb(0, 0, 0);stroke-linecap:square;stroke-width:2" />
	<text x="236" y="95" style="font-family:Arial;font-size:12px;text-anchor:end" dy=".3em" transform="rotate(0, 236, 95)">0V</text>
	<line x1="70" y1="60" x2="70" y2="131" style="stroke:rgb(0, 0, 0);stroke-linecap:square;stroke-width:2" />
	<line x1="60" y1="131" x2="80" y2="131" style="stroke:rgb(0, 0, 0);stroke-linecap:square;stroke-width:2" />
	<line x1="65" y1="137" x2="75" y2="137" style="stroke:rgb(0, 0, 0);stroke-linecap:square;stroke-width:2" />
	<line x1="60" y1="143" x2="80" y2="143" style="stroke:rgb(0, 0, 0);stroke-linecap:square;stroke-width:2" />
	<line x1="65" y1="149" x2="75" y2="149" style="stroke:rgb(0, 0, 0);stroke-linecap:square;stroke-width:2" />
	<line x1="70" y1="149" x2="70" y2="220" style="stroke:rgb(0, 0, 0);stroke-linecap:square;stroke-width:2" />
	<text x="56" y="140" style="font-family:Arial;font-size:12px;text-anchor:end" dy=".3em" transform="rotate(0, 56, 140)">+12V</text>
	<line x1="250" y1="60" x2="291" y2="60" style="stroke:rgb(0, 0, 0);stroke-linecap:square;stroke-width:2" />
	<line x1="291" y1="50" x2="291" y2="70" style="stroke:rgb(0, 0, 0);stroke-linecap:square;stroke-width:2" />
	<line x1="297" y1="55" x2="297" y2="65" style="stroke:rgb(0, 0, 0);stroke-linecap:square;stroke-width:2" />
	<line x1="303" y1="50" x2="303" y2="70" style="stroke:rgb(0, 0, 0);stroke-linecap:square;stroke-width:2" />
	<line x1="309" y1="55" x2="309" y2="65" style="stroke:rgb(0, 0, 0);stroke-linecap:square;stroke-width:2" />
	<line x1="309" y1="60" x2="350" y2="60" style="stroke:rgb(0, 0, 0);stroke-linecap:square;stroke-width:2" />
	<text x="300" y="48" style="font-family:Arial;font-size:12px;text-anchor:middle" dy="-0.3em" transform="rotate(0, 300, 48)">0V</text>
	<line x1="350" y1="130" x2="350" y2="155" style="stroke:rgb(0, 0, 0);stroke-linecap:square;stroke-width:2" />
	<line x1="350" y1="195" x2="350" y2="220" style="stroke:rgb(0, 0, 0);stroke-linecap:square;stroke-width:2" />
	<path d="M 350,155 L 350,157 L 343,160 L 357,166 L 343,172 L 357,178 L 343,184 L 357,190 L 350,193 L 350,195" style="fill-opacity:0;fill:rgb(0, 0, 0);stroke:rgb(0, 0, 0);stroke-linecap:square;stroke-width:2" />
	<text x="336" y="175" style="font-family:Arial;font-size:11px;text-anchor:end" dy=".3em" transform="rotate(0, 336, 175)">1.5 kΩ</text>
	<line x1="250" y1="130" x2="250" y2="155" style="stroke:rgb(0, 0, 0);stroke-linecap:square;stroke-width:2" />
	<line x1="250" y1="195" x2="250" y2="220" style="stroke:rgb(0, 0, 0);stroke-linecap:square;stroke-width:2" />
	<path d="M 250,155 L 250,157 L 243,160 L 257,166 L 243,172 L 257,178 L 243,184 L 257,190 L 250,193 L 250,195" style="fill-opacity:0;fill:rgb(0, 0, 0);stroke:rgb(0, 0, 0);stroke-linecap:square;stroke-width:2" />
	<text x="236" y="175" style="font-family:Arial;font-size:11px;text-anchor:end" dy=".3em" transform="rotate(0, 236, 175)">470 Ω</text>
	<text x="160" y="80" style="font-family:Arial;font-size:11px;text-anchor:start" dy=".3em" transform="rotate(0, 160, 80)">R2</text>
	<line x1="70" y1="60" x2="145" y2="60" style="stroke:rgb(0, 0, 0);stroke-linecap:square;stroke-width:2" />
	<line x1="185" y1="60" x2="260" y2="60" style="stroke:rgb(0, 0, 0);stroke-linecap:square;stroke-width:2" />
	<path d="M 145,60 L 147,60 L 150,53 L 156,67 L 162,53 L 168,67 L 174,53 L 180,67 L 183,60 L 185,60" style="fill-opacity:0;fill:rgb(0, 0, 0);stroke:rgb(0, 0, 0);stroke-linecap:square;stroke-width:2" />
	<text x="165" y="43" style="font-family:Arial;font-size:11px;text-anchor:middle" dy=".3em" transform="rotate(0, 165, 43)">1 kΩ</text>
	<ellipse cx="350" cy="60" rx="2" ry="2" style="fill-opacity:1;fill:rgb(0, 0, 0);stroke:rgb(0, 0, 0);stroke-width:2" />
	<ellipse cx="250" cy="60" rx="2" ry="2" style="fill-opacity:1;fill:rgb(0, 0, 0);stroke:rgb(0, 0, 0);stroke-width:2" />
	<ellipse cx="250" cy="220" rx="2" ry="2" style="fill-opacity:1;fill:rgb(0, 0, 0);stroke:rgb(0, 0, 0);stroke-width:2" />
</svg>