<?xml version="1.0" encoding="utf-8"?>
<!-- Generator: Circuit Diagram, cdlibrary.dll 1.0.0.0 -->
<!DOCTYPE svg PUBLIC "-//W3C//DTD SVG 1.1//EN" "http://www.w3.org/Graphics/SVG/1.1/DTD/svg11.dtd">
<svg version="1.1" width="480" height="260" xmlns="http://www.w3.org/2000/svg">
	<text x="430" y="140" style="font-family:Arial;font-size:11px;text-anchor:start" dy=".3em" transform="rotate(0, 430, 140)">#7</text>
	<text x="420" y="50" style="font-family:Arial;font-size:11px;text-anchor:start" dy=".3em" transform="rotate(0, 420, 50)">#6</text>
	<text x="260" y="170" style="font-family:Arial;font-size:11px;text-anchor:start" dy=".3em" transform="rotate(0, 260, 170)">#4</text>
	<text x="320" y="50" style="font-family:Arial;font-size:11px;text-anchor:start" dy=".3em" transform="rotate(0, 320, 50)">#5</text>
	<text x="260" y="120" style="font-family:Arial;font-size:11px;text-anchor:start" dy=".3em" transform="rotate(0, 260, 120)">#3</text>
	<text x="210" y="70" style="font-family:Arial;font-size:11px;text-anchor:start" dy=".3em" transform="rotate(0, 210, 70)">#2</text>
	<text x="80" y="50" style="font-family:Arial;font-size:11px;text-anchor:start" dy=".3em" transform="rotate(0, 80, 50)">#1</text>
	<text x="270" y="200" style="font-family:Arial;font-size:11px;text-anchor:start" dy=".3em" transform="rotate(0, 270, 200)">VDD2</text>
	<text x="270" y="140" style="font-family:Arial;font-size:11px;text-anchor:start" dy=".3em" transform="rotate(0, 270, 140)">R3</text>
	<line x1="250" y1="170" x2="250" y2="186" style="stroke:rgb(0, 0, 0);stroke-linecap:square;stroke-width:2" />
	<line x1="240" y1="186" x2="260" y2="186" style="stroke:rgb(0, 0, 0);stroke-linecap:square;stroke-width:2" />
	<line x1="245" y1="192" x2="255" y2="192" style="stroke:rgb(0, 0, 0);stroke-linecap:square;stroke-width:2" />
	<line x1="240" y1="198" x2="260" y2="198" style="stroke:rgb(0, 0, 0);stroke-linecap:square;stroke-width:2" />
	<line x1="245" y1="204" x2="255" y2="204" style="stroke:rgb(0, 0, 0);stroke-linecap:square;stroke-width:2" />
	<line x1="250" y1="204" x2="250" y2="220" style="stroke:rgb(0, 0, 0);stroke-linecap:square;stroke-width:2" />
	<text x="236" y="195" style="font-family:Arial;font-size:12px;text-anchor:end" dy=".3em" transform="rotate(0, 236, 195)">+1.5V</text>
	<text x="440" y="100" style="font-family:Arial;font-size:11px;text-anchor:start" dy=".3em" transform="rotate(0, 440, 100)">R4</text>
	<text x="440" y="180" style="font-family:Arial;font-size:11px;text-anchor:start" dy=".3em" transform="rotate(0, 440, 180)">R5</text>
	<line x1="420" y1="60" x2="420" y2="75" style="stroke:rgb(0, 0, 0);stroke-linecap:square;stroke-width:2" />
	<line x1="420" y1="115" x2="420" y2="130" style="stroke:rgb(0, 0, 0);stroke-linecap:square;stroke-width:2" />
	<path d="M 420,75 L 420,77 L 413,80 L 427,86 L 413,92 L 427,98 L 413,104 L 427,110 L 420,113 L 420,115" style="fill-opacity:0;fill:rgb(0, 0, 0);stroke:rgb(0, 0, 0);stroke-linecap:square;stroke-width:2" />
	<text x="406" y="95" style="font-family:Arial;font-size:11px;text-anchor:end" dy=".3em" transform="rotate(0, 406, 95)">1 kΩ</text>
	<text x="360" y="80" style="font-family:Arial;font-size:11px;text-anchor:start" dy=".3em" transform="rotate(0, 360, 80)">R2</text>
	<text x="280" y="80" style="font-family:Arial;font-size:11px;text-anchor:start" dy=".3em" transform="rotate(0, 280, 80)">VDummy2</text>
	<line x1="270" y1="60" x2="286" y2="60" style="stroke:rgb(0, 0, 0);stroke-linecap:square;stroke-width:2" />
	<line x1="286" y1="50" x2="286" y2="70" style="stroke:rgb(0, 0, 0);stroke-linecap:square;stroke-width:2" />
	<line x1="292" y1="55" x2="292" y2="65" style="stroke:rgb(0, 0, 0);stroke-linecap:square;stroke-width:2" />
	<line x1="298" y1="50" x2="298" y2="70" style="stroke:rgb(0, 0, 0);stroke-linecap:square;stroke-width:2" />
	<line x1="304" y1="55" x2="304" y2="65" style="stroke:rgb(0, 0, 0);stroke-linecap:square;stroke-width:2" />
	<line x1="304" y1="60" x2="320" y2="60" style="stroke:rgb(0, 0, 0);stroke-linecap:square;stroke-width:2" />
	<text x="295" y="48" style="font-family:Arial;font-size:12px;text-anchor:middle" dy="-0.3em" transform="rotate(0, 295, 48)">0V</text>
	<line x1="320" y1="60" x2="350" y2="60" style="stroke:rgb(0, 0, 0);stroke-linecap:square;stroke-width:2" />
	<line x1="390" y1="60" x2="420" y2="60" style="stroke:rgb(0, 0, 0);stroke-linecap:square;stroke-width:2" />
	<path d="M 350,60 L 352,60 L 355,53 L 361,67 L 367,53 L 373,67 L 379,53 L 385,67 L 388,60 L 390,60" style="fill-opacity:0;fill:rgb(0, 0, 0);stroke:rgb(0, 0, 0);stroke-linecap:square;stroke-width:2" />
	<text x="370" y="43" style="font-family:Arial;font-size:11px;text-anchor:middle" dy=".3em" transform="rotate(0, 370, 43)">220 Ω</text>
	<text x="210" y="40" style="font-family:Arial;font-size:11px;text-anchor:start" dy=".3em" transform="rotate(0, 210, 40)">CIRCUITO 2</text>
	<text x="190" y="110" style="font-family:Arial;font-size:11px;text-anchor:start" dy=".3em" transform="rotate(0, 190, 110)">VDummy1</text>
	<line x1="250" y1="60" x2="270" y2="60" style="stroke:rgb(0, 0, 0);stroke-linecap:square;stroke-width:2" />
	<line x1="70" y1="220" x2="420" y2="220" style="stroke:rgb(0, 0, 0);stroke-linecap:square;stroke-width:2" />
	<line x1="250" y1="60" x2="250" y2="81" style="stroke:rgb(0, 0, 0);stroke-linecap:square;stroke-width:2" />
	<line x1="240" y1="81" x2="260" y2="81" style="stroke:rgb(0, 0, 0);stroke-linecap:square;stroke-width:2" />
	<line x1="245" y1="87" x2="255" y2="87" style="stroke:rgb(0, 0, 0);stroke-linecap:square;stroke-width:2" />
	<line x1="240" y1="93" x2="260" y2="93" style="stroke:rgb(0, 0, 0);stroke-linecap:square;stroke-width:2" />
	<line x1="245" y1="99" x2="255" y2="99" style="stroke:rgb(0, 0, 0);stroke-linecap:square;stroke-width:2" />
	<line x1="250" y1="99" x2="250" y2="120" style="stroke:rgb(0, 0, 0);stroke-linecap:square;stroke-width:2" />
	<text x="236" y="90" style="font-family:Arial;font-size:12px;text-anchor:end" dy=".3em" transform="rotate(0, 236, 90)">0V</text>
	<line x1="70" y1="60" x2="70" y2="131" style="stroke:rgb(0, 0, 0);stroke-linecap:square;stroke-width:2" />
	<line x1="60" y1="131" x2="80" y2="131" style="stroke:rgb(0, 0, 0);stroke-linecap:square;stroke-width:2" />
	<line x1="65" y1="137" x2="75" y2="137" style="stroke:rgb(0, 0, 0);stroke-linecap:square;stroke-width:2" />
	<line x1="60" y1="143" x2="80" y2="143" style="stroke:rgb(0, 0, 0);stroke-linecap:square;stroke-width:2" />
	<line x1="65" y1="149" x2="75" y2="149" style="stroke:rgb(0, 0, 0);stroke-linecap:square;stroke-width:2" />
	<line x1="70" y1="149" x2="70" y2="220" style="stroke:rgb(0, 0, 0);stroke-linecap:square;stroke-width:2" />
	<text x="56" y="140" style="font-family:Arial;font-size:12px;text-anchor:end" dy=".3em" transform="rotate(0, 56, 140)">+9V</text>
	<line x1="420" y1="130" x2="420" y2="155" style="stroke:rgb(0, 0, 0);stroke-linecap:square;stroke-width:2" />
	<line x1="420" y1="195" x2="420" y2="220" style="stroke:rgb(0, 0, 0);stroke-linecap:square;stroke-width:2" />
	<path d="M 420,155 L 420,157 L 413,160 L 427,166 L 413,172 L 427,178 L 413,184 L 427,190 L 420,193 L 420,195" style="fill-opacity:0;fill:rgb(0, 0, 0);stroke:rgb(0, 0, 0);stroke-linecap:square;stroke-width:2" />
	<text x="406" y="175" style="font-family:Arial;font-size:11px;text-anchor:end" dy=".3em" transform="rotate(0, 406, 175)">560 Ω</text>
	<line x1="250" y1="120" x2="250" y2="125" style="stroke:rgb(0, 0, 0);stroke-linecap:square;stroke-width:2" />
	<line x1="250" y1="165" x2="250" y2="170" style="stroke:rgb(0, 0, 0);stroke-linecap:square;stroke-width:2" />
	<path d="M 250,125 L 250,127 L 243,130 L 257,136 L 243,142 L 257,148 L 243,154 L 257,160 L 250,163 L 250,165" style="fill-opacity:0;fill:rgb(0, 0, 0);stroke:rgb(0, 0, 0);stroke-linecap:square;stroke-width:2" />
	<text x="236" y="145" style="font-family:Arial;font-size:11px;text-anchor:end" dy=".3em" transform="rotate(0, 236, 145)">180 Ω</text>
	<text x="160" y="80" style="font-family:Arial;font-size:11px;text-anchor:start" dy=".3em" transform="rotate(0, 160, 80)">R1</text>
	<line x1="70" y1="60" x2="145" y2="60" style="stroke:rgb(0, 0, 0);stroke-linecap:square;stroke-width:2" />
	<line x1="185" y1="60" x2="260" y2="60" style="stroke:rgb(0, 0, 0);stroke-linecap:square;stroke-width:2" />
	<path d="M 145,60 L 147,60 L 150,53 L 156,67 L 162,53 L 168,67 L 174,53 L 180,67 L 183,60 L 185,60" style="fill-opacity:0;fill:rgb(0, 0, 0);stroke:rgb(0, 0, 0);stroke-linecap:square;stroke-width:2" />
	<text x="165" y="43" style="font-family:Arial;font-size:11px;text-anchor:middle" dy=".3em" transform="rotate(0, 165, 43)">47 Ω</text>
	<ellipse cx="250" cy="220" rx="2" ry="2" style="fill-opacity:1;fill:rgb(0, 0, 0);stroke:rgb(0, 0, 0);stroke-width:2" />
	<ellipse cx="250" cy="60" rx="2" ry="2" style="fill-opacity:1;fill:rgb(0, 0, 0);stroke:rgb(0, 0, 0);stroke-width:2" />
</svg>