<?xml version="1.0" encoding="utf-8"?>
<!-- Generator: Circuit Diagram, cdlibrary.dll 1.0.0.0 -->
<!DOCTYPE svg PUBLIC "-//W3C//DTD SVG 1.1//EN" "http://www.w3.org/Graphics/SVG/1.1/DTD/svg11.dtd">
<svg version="1.1" width="440" height="240" xmlns="http://www.w3.org/2000/svg">
	<text x="380" y="100" style="font-family:Arial;font-size:11px;text-anchor:start" dy=".3em" transform="rotate(0, 380, 100)">VD2</text>
	<text x="280" y="100" style="font-family:Arial;font-size:11px;text-anchor:start" dy=".3em" transform="rotate(0, 280, 100)">VD1</text>
	<text x="320" y="150" style="font-family:Arial;font-size:11px;text-anchor:start" dy=".3em" transform="rotate(0, 320, 150)">C2</text>
	<text x="230" y="150" style="font-family:Arial;font-size:11px;text-anchor:start" dy=".3em" transform="rotate(0, 230, 150)">C1</text>
	<text x="240" y="40" style="font-family:Arial;font-size:11px;text-anchor:start" dy=".3em" transform="rotate(0, 240, 40)">Carrera de condensadores</text>
	<text x="210" y="200" style="font-family:Arial;font-size:11px;text-anchor:start" dy=".3em" transform="rotate(0, 210, 200)">#0</text>
	<text x="280" y="130" style="font-family:Arial;font-size:11px;text-anchor:start" dy=".3em" transform="rotate(0, 280, 130)">#3</text>
	<text x="380" y="130" style="font-family:Arial;font-size:11px;text-anchor:start" dy=".3em" transform="rotate(0, 380, 130)">#4</text>
	<text x="320" y="60" style="font-family:Arial;font-size:11px;text-anchor:start" dy=".3em" transform="rotate(0, 320, 60)">#2</text>
	<text x="160" y="60" style="font-family:Arial;font-size:11px;text-anchor:start" dy=".3em" transform="rotate(0, 160, 60)">#1</text>
	<line x1="80" y1="190" x2="270" y2="190" style="stroke:rgb(0, 0, 0);stroke-linecap:square;stroke-width:2" />
	<line x1="270" y1="190" x2="370" y2="190" style="stroke:rgb(0, 0, 0);stroke-linecap:square;stroke-width:2" />
	<line x1="370" y1="130" x2="370" y2="156" style="stroke:rgb(0, 0, 0);stroke-linecap:square;stroke-width:2" />
	<line x1="370" y1="164" x2="370" y2="190" style="stroke:rgb(0, 0, 0);stroke-linecap:square;stroke-width:2" />
	<line x1="356" y1="156" x2="384" y2="156" style="stroke:rgb(0, 0, 0);stroke-linecap:square;stroke-width:2" />
	<line x1="356" y1="164" x2="384" y2="164" style="stroke:rgb(0, 0, 0);stroke-linecap:square;stroke-width:2" />
	<text x="350" y="160" style="font-family:Arial;font-size:11px;text-anchor:end" dy=".3em" transform="rotate(0, 350, 160)">22 nF</text>
	<line x1="270" y1="130" x2="270" y2="156" style="stroke:rgb(0, 0, 0);stroke-linecap:square;stroke-width:2" />
	<line x1="270" y1="164" x2="270" y2="190" style="stroke:rgb(0, 0, 0);stroke-linecap:square;stroke-width:2" />
	<line x1="256" y1="156" x2="284" y2="156" style="stroke:rgb(0, 0, 0);stroke-linecap:square;stroke-width:2" />
	<line x1="256" y1="164" x2="284" y2="164" style="stroke:rgb(0, 0, 0);stroke-linecap:square;stroke-width:2" />
	<text x="250" y="160" style="font-family:Arial;font-size:11px;text-anchor:end" dy=".3em" transform="rotate(0, 250, 160)">47 nF</text>
	<line x1="80" y1="70" x2="205" y2="70" style="stroke:rgb(0, 0, 0);stroke-linecap:square;stroke-width:2" />
	<line x1="245" y1="70" x2="370" y2="70" style="stroke:rgb(0, 0, 0);stroke-linecap:square;stroke-width:2" />
	<path d="M 205,70 L 207,70 L 210,63 L 216,77 L 222,63 L 228,77 L 234,63 L 240,77 L 243,70 L 245,70" style="fill-opacity:0;fill:rgb(0, 0, 0);stroke:rgb(0, 0, 0);stroke-linecap:square;stroke-width:2" />
	<text x="225" y="53" style="font-family:Arial;font-size:11px;text-anchor:middle" dy=".3em" transform="rotate(0, 225, 53)">3.3 kΩ</text>
	<line x1="370" y1="70" x2="370" y2="91" style="stroke:rgb(0, 0, 0);stroke-linecap:square;stroke-width:2" />
	<line x1="360" y1="91" x2="380" y2="91" style="stroke:rgb(0, 0, 0);stroke-linecap:square;stroke-width:2" />
	<line x1="365" y1="97" x2="375" y2="97" style="stroke:rgb(0, 0, 0);stroke-linecap:square;stroke-width:2" />
	<line x1="360" y1="103" x2="380" y2="103" style="stroke:rgb(0, 0, 0);stroke-linecap:square;stroke-width:2" />
	<line x1="365" y1="109" x2="375" y2="109" style="stroke:rgb(0, 0, 0);stroke-linecap:square;stroke-width:2" />
	<line x1="370" y1="109" x2="370" y2="130" style="stroke:rgb(0, 0, 0);stroke-linecap:square;stroke-width:2" />
	<text x="356" y="100" style="font-family:Arial;font-size:12px;text-anchor:end" dy=".3em" transform="rotate(0, 356, 100)">0V</text>
	<line x1="270" y1="70" x2="270" y2="91" style="stroke:rgb(0, 0, 0);stroke-linecap:square;stroke-width:2" />
	<line x1="260" y1="91" x2="280" y2="91" style="stroke:rgb(0, 0, 0);stroke-linecap:square;stroke-width:2" />
	<line x1="265" y1="97" x2="275" y2="97" style="stroke:rgb(0, 0, 0);stroke-linecap:square;stroke-width:2" />
	<line x1="260" y1="103" x2="280" y2="103" style="stroke:rgb(0, 0, 0);stroke-linecap:square;stroke-width:2" />
	<line x1="265" y1="109" x2="275" y2="109" style="stroke:rgb(0, 0, 0);stroke-linecap:square;stroke-width:2" />
	<line x1="270" y1="109" x2="270" y2="130" style="stroke:rgb(0, 0, 0);stroke-linecap:square;stroke-width:2" />
	<text x="256" y="100" style="font-family:Arial;font-size:12px;text-anchor:end" dy=".3em" transform="rotate(0, 256, 100)">0V</text>
	<line x1="80" y1="70" x2="80" y2="121" style="stroke:rgb(0, 0, 0);stroke-linecap:square;stroke-width:2" />
	<line x1="70" y1="121" x2="90" y2="121" style="stroke:rgb(0, 0, 0);stroke-linecap:square;stroke-width:2" />
	<line x1="75" y1="127" x2="85" y2="127" style="stroke:rgb(0, 0, 0);stroke-linecap:square;stroke-width:2" />
	<line x1="70" y1="133" x2="90" y2="133" style="stroke:rgb(0, 0, 0);stroke-linecap:square;stroke-width:2" />
	<line x1="75" y1="139" x2="85" y2="139" style="stroke:rgb(0, 0, 0);stroke-linecap:square;stroke-width:2" />
	<line x1="80" y1="139" x2="80" y2="190" style="stroke:rgb(0, 0, 0);stroke-linecap:square;stroke-width:2" />
	<text x="66" y="130" style="font-family:Arial;font-size:12px;text-anchor:end" dy=".3em" transform="rotate(0, 66, 130)">+10V</text>
	<ellipse cx="270" cy="190" rx="2" ry="2" style="fill-opacity:1;fill:rgb(0, 0, 0);stroke:rgb(0, 0, 0);stroke-width:2" />
	<ellipse cx="270" cy="70" rx="2" ry="2" style="fill-opacity:1;fill:rgb(0, 0, 0);stroke:rgb(0, 0, 0);stroke-width:2" />
</svg>