<?xml version="1.0" encoding="utf-8"?>
<!-- Generator: Circuit Diagram, cdlibrary.dll 1.0.0.0 -->
<!DOCTYPE svg PUBLIC "-//W3C//DTD SVG 1.1//EN" "http://www.w3.org/Graphics/SVG/1.1/DTD/svg11.dtd">
<svg version="1.1" width="380" height="200" xmlns="http://www.w3.org/2000/svg">
	<text x="250" y="30" style="font-family:Arial;font-size:11px;text-anchor:start" dy=".3em" transform="rotate(0, 250, 30)">CIRCUITO 3</text>
	<text x="330" y="110" style="font-family:Arial;font-size:11px;text-anchor:start" dy=".3em" transform="rotate(0, 330, 110)">#4</text>
	<text x="250" y="110" style="font-family:Arial;font-size:11px;text-anchor:start" dy=".3em" transform="rotate(0, 250, 110)">#3</text>
	<text x="170" y="110" style="font-family:Arial;font-size:11px;text-anchor:start" dy=".3em" transform="rotate(0, 170, 110)">#2</text>
	<text x="170" y="40" style="font-family:Arial;font-size:11px;text-anchor:start" dy=".3em" transform="rotate(0, 170, 40)">#1</text>
	<text x="70" y="160" style="font-family:Arial;font-size:11px;text-anchor:start" dy=".3em" transform="rotate(0, 70, 160)">#0</text>
	<text x="290" y="150" style="font-family:Arial;font-size:11px;text-anchor:start" dy=".3em" transform="rotate(0, 290, 150)">R3</text>
	<text x="210" y="150" style="font-family:Arial;font-size:11px;text-anchor:start" dy=".3em" transform="rotate(0, 210, 150)">R2</text>
	<text x="130" y="150" style="font-family:Arial;font-size:11px;text-anchor:start" dy=".3em" transform="rotate(0, 130, 150)">R1</text>
	<text x="260" y="60" style="font-family:Arial;font-size:11px;text-anchor:start" dy=".3em" transform="rotate(0, 260, 60)">VDUMMY3</text>
	<text x="180" y="60" style="font-family:Arial;font-size:11px;text-anchor:start" dy=".3em" transform="rotate(0, 180, 60)">VDUMMY2</text>
	<text x="90" y="60" style="font-family:Arial;font-size:11px;text-anchor:start" dy=".3em" transform="rotate(0, 90, 60)">VDUMMY1</text>
	<text x="30" y="130" style="font-family:Arial;font-size:11px;text-anchor:start" dy=".3em" transform="rotate(0, 30, 130)">VDD</text>
	<line x1="60" y1="170" x2="320" y2="170" style="stroke:rgb(0, 0, 0);stroke-linecap:square;stroke-width:2" />
	<line x1="60" y1="50" x2="320" y2="50" style="stroke:rgb(0, 0, 0);stroke-linecap:square;stroke-width:2" />
	<line x1="320" y1="50" x2="320" y2="71" style="stroke:rgb(0, 0, 0);stroke-linecap:square;stroke-width:2" />
	<line x1="310" y1="71" x2="330" y2="71" style="stroke:rgb(0, 0, 0);stroke-linecap:square;stroke-width:2" />
	<line x1="315" y1="77" x2="325" y2="77" style="stroke:rgb(0, 0, 0);stroke-linecap:square;stroke-width:2" />
	<line x1="310" y1="83" x2="330" y2="83" style="stroke:rgb(0, 0, 0);stroke-linecap:square;stroke-width:2" />
	<line x1="315" y1="89" x2="325" y2="89" style="stroke:rgb(0, 0, 0);stroke-linecap:square;stroke-width:2" />
	<line x1="320" y1="89" x2="320" y2="110" style="stroke:rgb(0, 0, 0);stroke-linecap:square;stroke-width:2" />
	<text x="306" y="80" style="font-family:Arial;font-size:12px;text-anchor:end" dy=".3em" transform="rotate(0, 306, 80)">0V</text>
	<line x1="240" y1="50" x2="240" y2="71" style="stroke:rgb(0, 0, 0);stroke-linecap:square;stroke-width:2" />
	<line x1="230" y1="71" x2="250" y2="71" style="stroke:rgb(0, 0, 0);stroke-linecap:square;stroke-width:2" />
	<line x1="235" y1="77" x2="245" y2="77" style="stroke:rgb(0, 0, 0);stroke-linecap:square;stroke-width:2" />
	<line x1="230" y1="83" x2="250" y2="83" style="stroke:rgb(0, 0, 0);stroke-linecap:square;stroke-width:2" />
	<line x1="235" y1="89" x2="245" y2="89" style="stroke:rgb(0, 0, 0);stroke-linecap:square;stroke-width:2" />
	<line x1="240" y1="89" x2="240" y2="110" style="stroke:rgb(0, 0, 0);stroke-linecap:square;stroke-width:2" />
	<text x="226" y="80" style="font-family:Arial;font-size:12px;text-anchor:end" dy=".3em" transform="rotate(0, 226, 80)">0V</text>
	<line x1="160" y1="50" x2="160" y2="71" style="stroke:rgb(0, 0, 0);stroke-linecap:square;stroke-width:2" />
	<line x1="150" y1="71" x2="170" y2="71" style="stroke:rgb(0, 0, 0);stroke-linecap:square;stroke-width:2" />
	<line x1="155" y1="77" x2="165" y2="77" style="stroke:rgb(0, 0, 0);stroke-linecap:square;stroke-width:2" />
	<line x1="150" y1="83" x2="170" y2="83" style="stroke:rgb(0, 0, 0);stroke-linecap:square;stroke-width:2" />
	<line x1="155" y1="89" x2="165" y2="89" style="stroke:rgb(0, 0, 0);stroke-linecap:square;stroke-width:2" />
	<line x1="160" y1="89" x2="160" y2="110" style="stroke:rgb(0, 0, 0);stroke-linecap:square;stroke-width:2" />
	<text x="146" y="80" style="font-family:Arial;font-size:12px;text-anchor:end" dy=".3em" transform="rotate(0, 146, 80)">0V</text>
	<line x1="60" y1="50" x2="60" y2="101" style="stroke:rgb(0, 0, 0);stroke-linecap:square;stroke-width:2" />
	<line x1="50" y1="101" x2="70" y2="101" style="stroke:rgb(0, 0, 0);stroke-linecap:square;stroke-width:2" />
	<line x1="55" y1="107" x2="65" y2="107" style="stroke:rgb(0, 0, 0);stroke-linecap:square;stroke-width:2" />
	<line x1="50" y1="113" x2="70" y2="113" style="stroke:rgb(0, 0, 0);stroke-linecap:square;stroke-width:2" />
	<line x1="55" y1="119" x2="65" y2="119" style="stroke:rgb(0, 0, 0);stroke-linecap:square;stroke-width:2" />
	<line x1="60" y1="119" x2="60" y2="170" style="stroke:rgb(0, 0, 0);stroke-linecap:square;stroke-width:2" />
	<text x="46" y="110" style="font-family:Arial;font-size:12px;text-anchor:end" dy=".3em" transform="rotate(0, 46, 110)">+9V</text>
	<line x1="320" y1="110" x2="320" y2="120" style="stroke:rgb(0, 0, 0);stroke-linecap:square;stroke-width:2" />
	<line x1="320" y1="160" x2="320" y2="170" style="stroke:rgb(0, 0, 0);stroke-linecap:square;stroke-width:2" />
	<path d="M 320,120 L 320,122 L 313,125 L 327,131 L 313,137 L 327,143 L 313,149 L 327,155 L 320,158 L 320,160" style="fill-opacity:0;fill:rgb(0, 0, 0);stroke:rgb(0, 0, 0);stroke-linecap:square;stroke-width:2" />
	<text x="306" y="140" style="font-family:Arial;font-size:11px;text-anchor:end" dy=".3em" transform="rotate(0, 306, 140)">1 kΩ</text>
	<line x1="240" y1="110" x2="240" y2="120" style="stroke:rgb(0, 0, 0);stroke-linecap:square;stroke-width:2" />
	<line x1="240" y1="160" x2="240" y2="170" style="stroke:rgb(0, 0, 0);stroke-linecap:square;stroke-width:2" />
	<path d="M 240,120 L 240,122 L 233,125 L 247,131 L 233,137 L 247,143 L 233,149 L 247,155 L 240,158 L 240,160" style="fill-opacity:0;fill:rgb(0, 0, 0);stroke:rgb(0, 0, 0);stroke-linecap:square;stroke-width:2" />
	<text x="226" y="140" style="font-family:Arial;font-size:11px;text-anchor:end" dy=".3em" transform="rotate(0, 226, 140)">2 kΩ</text>
	<line x1="160" y1="110" x2="160" y2="120" style="stroke:rgb(0, 0, 0);stroke-linecap:square;stroke-width:2" />
	<line x1="160" y1="160" x2="160" y2="170" style="stroke:rgb(0, 0, 0);stroke-linecap:square;stroke-width:2" />
	<path d="M 160,120 L 160,122 L 153,125 L 167,131 L 153,137 L 167,143 L 153,149 L 167,155 L 160,158 L 160,160" style="fill-opacity:0;fill:rgb(0, 0, 0);stroke:rgb(0, 0, 0);stroke-linecap:square;stroke-width:2" />
	<text x="146" y="140" style="font-family:Arial;font-size:11px;text-anchor:end" dy=".3em" transform="rotate(0, 146, 140)">10 kΩ</text>
	<ellipse cx="160" cy="170" rx="2" ry="2" style="fill-opacity:1;fill:rgb(0, 0, 0);stroke:rgb(0, 0, 0);stroke-width:2" />
	<ellipse cx="240" cy="170" rx="2" ry="2" style="fill-opacity:1;fill:rgb(0, 0, 0);stroke:rgb(0, 0, 0);stroke-width:2" />
	<ellipse cx="160" cy="50" rx="2" ry="2" style="fill-opacity:1;fill:rgb(0, 0, 0);stroke:rgb(0, 0, 0);stroke-width:2" />
	<ellipse cx="240" cy="50" rx="2" ry="2" style="fill-opacity:1;fill:rgb(0, 0, 0);stroke:rgb(0, 0, 0);stroke-width:2" />
</svg>